<svg width="204" height="43" viewBox="0 0 204 43" fill="none" xmlns="http://www.w3.org/2000/svg">
<path d="M4.11409 13.3383C-1.37136 18.8238 -1.37136 27.7452 4.11409 33.2306C6.86686 35.9834 10.4635 37.3497 14.0602 37.3497C17.6569 37.3497 21.2536 35.9834 24.0064 33.2306C30.9988 26.2382 32.1441 5.20056 32.1441 5.20056C32.1441 5.20056 11.1065 6.34588 4.11409 13.3383ZM21.1732 30.3975C19.2644 32.2862 16.7527 33.3311 14.0602 33.3311C12.2719 33.3311 10.5841 32.8287 9.07711 31.9647C10.9257 26.1779 14.3415 21.0943 18.8826 17.2565C13.5981 19.9892 9.15749 24.2087 6.08322 29.3124C3.10943 25.3742 3.37064 19.7681 6.96732 16.1715C10.4635 12.6752 20.1686 10.5253 27.7236 9.62107C26.8194 17.1761 24.6695 26.8811 21.1732 30.3975Z" fill="white"/>
<path d="M57.7914 13.958V23.4873H62.556C63.209 23.4873 63.8233 23.3656 64.3988 23.1221C64.9743 22.8675 65.4779 22.5244 65.9095 22.0928C66.3412 21.6611 66.6788 21.1576 66.9222 20.582C67.1768 19.9954 67.3041 19.3757 67.3041 18.7227C67.3041 18.0697 67.1768 17.4554 66.9222 16.8799C66.6788 16.2933 66.3412 15.7842 65.9095 15.3525C65.4779 14.9209 64.9743 14.5833 64.3988 14.3398C63.8233 14.0853 63.209 13.958 62.556 13.958H57.7914ZM57.7914 33H53.0267V9.19336H62.556C63.4304 9.19336 64.2715 9.30957 65.0795 9.54199C65.8874 9.76335 66.64 10.0843 67.3373 10.5049C68.0456 10.9144 68.6875 11.4124 69.2631 11.999C69.8497 12.5745 70.3477 13.2165 70.7572 13.9248C71.1778 14.6331 71.4987 15.3913 71.7201 16.1992C71.9525 17.0072 72.0687 17.8483 72.0687 18.7227C72.0687 20.0286 71.8197 21.2627 71.3217 22.4248C70.8236 23.5758 70.1429 24.583 69.2797 25.4463C68.4164 26.3096 67.4037 26.9902 66.2416 27.4883C65.0905 27.9863 63.862 28.2354 62.556 28.2354H57.7914V33ZM88.8861 23.4873V18.7227C88.8861 18.0697 88.7588 17.4554 88.5043 16.8799C88.2608 16.2933 87.9232 15.7842 87.4916 15.3525C87.0599 14.9209 86.5508 14.5833 85.9642 14.3398C85.3887 14.0853 84.7745 13.958 84.1215 13.958C83.4685 13.958 82.8487 14.0853 82.2621 14.3398C81.6866 14.5833 81.183 14.9209 80.7513 15.3525C80.3197 15.7842 79.9766 16.2933 79.722 16.8799C79.4786 17.4554 79.3568 18.0697 79.3568 18.7227V23.4873H88.8861ZM93.6508 33H88.8861V28.2354H79.3568V33H74.6088V18.7227C74.6088 17.4056 74.8578 16.1715 75.3558 15.0205C75.8539 13.8584 76.529 12.8457 77.3812 11.9824C78.2445 11.1191 79.2517 10.4385 80.4027 9.94043C81.5648 9.44238 82.8044 9.19336 84.1215 9.19336C85.4385 9.19336 86.6726 9.44238 87.8236 9.94043C88.9857 10.4385 89.9984 11.1191 90.8617 11.9824C91.725 12.8457 92.4056 13.8584 92.9037 15.0205C93.4017 16.1715 93.6508 17.4056 93.6508 18.7227V33ZM108.227 33H103.479V25.5459C102.427 25.2803 101.459 24.8542 100.574 24.2676C99.6993 23.681 98.9467 22.9837 98.3158 22.1758C97.6849 21.3568 97.1924 20.4548 96.8383 19.4697C96.4952 18.4736 96.3236 17.4277 96.3236 16.332V9.19336H101.088V16.332C101.088 16.985 101.21 17.6048 101.453 18.1914C101.708 18.7669 102.051 19.2705 102.483 19.7021C102.914 20.1338 103.418 20.4769 103.994 20.7314C104.58 20.9749 105.2 21.0967 105.853 21.0967C106.506 21.0967 107.12 20.9749 107.696 20.7314C108.282 20.4769 108.791 20.1338 109.223 19.7021C109.655 19.2705 109.992 18.7669 110.236 18.1914C110.49 17.6048 110.618 16.985 110.618 16.332V9.19336H115.366V16.332C115.366 17.4277 115.189 18.4736 114.834 19.4697C114.491 20.4548 114.004 21.3568 113.373 22.1758C112.743 22.9837 111.99 23.681 111.116 24.2676C110.241 24.8542 109.278 25.2803 108.227 25.5459V33ZM123.368 13.958V23.4873H128.132C128.785 23.4873 129.399 23.3656 129.975 23.1221C130.55 22.8675 131.054 22.5244 131.486 22.0928C131.917 21.6611 132.255 21.1576 132.498 20.582C132.753 19.9954 132.88 19.3757 132.88 18.7227C132.88 18.0697 132.753 17.4554 132.498 16.8799C132.255 16.2933 131.917 15.7842 131.486 15.3525C131.054 14.9209 130.55 14.5833 129.975 14.3398C129.399 14.0853 128.785 13.958 128.132 13.958H123.368ZM123.368 33H118.603V9.19336H128.132C129.007 9.19336 129.848 9.30957 130.656 9.54199C131.464 9.76335 132.216 10.0843 132.913 10.5049C133.622 10.9144 134.264 11.4124 134.839 11.999C135.426 12.5745 135.924 13.2165 136.333 13.9248C136.754 14.6331 137.075 15.3913 137.296 16.1992C137.529 17.0072 137.645 17.8483 137.645 18.7227C137.645 19.5417 137.54 20.3385 137.329 21.1133C137.13 21.888 136.837 22.624 136.45 23.3213C136.073 24.0186 135.608 24.6605 135.055 25.2471C134.502 25.8337 133.882 26.3428 133.196 26.7744L135.835 33H130.772L128.697 28.2021L123.368 28.2354V33ZM164.108 21.1963C164.108 22.3252 163.958 23.4154 163.66 24.4668C163.372 25.5072 162.962 26.4867 162.431 27.4053C161.9 28.3128 161.258 29.1429 160.505 29.8955C159.753 30.6481 158.923 31.2956 158.015 31.8379C157.107 32.3691 156.128 32.7786 155.077 33.0664C154.025 33.3652 152.935 33.5146 151.806 33.5146C150.677 33.5146 149.587 33.3652 148.536 33.0664C147.495 32.7786 146.516 32.3691 145.597 31.8379C144.689 31.2956 143.859 30.6481 143.107 29.8955C142.354 29.1429 141.707 28.3128 141.164 27.4053C140.633 26.4867 140.218 25.5072 139.919 24.4668C139.632 23.4154 139.488 22.3252 139.488 21.1963C139.488 20.0674 139.632 18.9772 139.919 17.9258C140.218 16.8743 140.633 15.8949 141.164 14.9873C141.707 14.0798 142.354 13.2497 143.107 12.4971C143.859 11.7445 144.689 11.1025 145.597 10.5713C146.516 10.04 147.495 9.63053 148.536 9.34277C149.587 9.04395 150.677 8.89453 151.806 8.89453C152.935 8.89453 154.025 9.04395 155.077 9.34277C156.128 9.63053 157.107 10.04 158.015 10.5713C158.923 11.1025 159.753 11.7445 160.505 12.4971C161.258 13.2497 161.9 14.0798 162.431 14.9873C162.962 15.8949 163.372 16.8743 163.66 17.9258C163.958 18.9772 164.108 20.0674 164.108 21.1963ZM159.376 21.1963C159.376 20.1559 159.177 19.1764 158.779 18.2578C158.38 17.3281 157.838 16.5257 157.152 15.8506C156.477 15.1644 155.674 14.6221 154.745 14.2236C153.826 13.8252 152.846 13.626 151.806 13.626C150.755 13.626 149.77 13.8252 148.851 14.2236C147.932 14.6221 147.13 15.1644 146.444 15.8506C145.758 16.5257 145.215 17.3281 144.817 18.2578C144.418 19.1764 144.219 20.1559 144.219 21.1963C144.219 22.2367 144.418 23.2161 144.817 24.1348C145.215 25.0423 145.758 25.8392 146.444 26.5254C147.13 27.2116 147.932 27.7539 148.851 28.1523C149.77 28.5508 150.755 28.75 151.806 28.75C152.846 28.75 153.826 28.5508 154.745 28.1523C155.674 27.7539 156.477 27.2116 157.152 26.5254C157.838 25.8392 158.38 25.0423 158.779 24.1348C159.177 23.2161 159.376 22.2367 159.376 21.1963ZM183.913 33H167.245V9.19336H172.01V28.2354H183.913V33ZM203.072 33H186.404V9.19336H191.168V28.2354H203.072V33Z" fill="white"/>
</svg>
